<?xml version="1.0" encoding="UTF-8" standalone="no"?>
<!-- Created with Inkscape (http://www.inkscape.org/) -->

<svg
   width="148.89107mm"
   height="33.69017mm"
   viewBox="0 0 148.89107 33.69017"
   version="1.1"
   id="svg5"
   inkscape:version="1.1 (c68e22c387, 2021-05-23)"
   sodipodi:docname="전남대.svg"
   xmlns:inkscape="http://www.inkscape.org/namespaces/inkscape"
   xmlns:sodipodi="http://sodipodi.sourceforge.net/DTD/sodipodi-0.dtd"
   xmlns="http://www.w3.org/2000/svg"
   xmlns:svg="http://www.w3.org/2000/svg">
  <sodipodi:namedview
     id="namedview7"
     pagecolor="#ffffff"
     bordercolor="#666666"
     borderopacity="1.0"
     inkscape:pageshadow="2"
     inkscape:pageopacity="0.0"
     inkscape:pagecheckerboard="0"
     inkscape:document-units="mm"
     showgrid="false"
     fit-margin-top="1"
     lock-margins="true"
     fit-margin-left="1"
     fit-margin-right="1"
     fit-margin-bottom="1"
     inkscape:zoom="0.96260079"
     inkscape:cx="0"
     inkscape:cy="88.821868"
     inkscape:window-width="2400"
     inkscape:window-height="1261"
     inkscape:window-x="-9"
     inkscape:window-y="-9"
     inkscape:window-maximized="1"
     inkscape:current-layer="layer1" />
  <defs
     id="defs2" />
  <g
     inkscape:label="레이어 1"
     inkscape:groupmode="layer"
     id="layer1"
     transform="translate(-7.987811,-144.82382)">
    <path
       d="m 52.756455,172.16122 c -0.104877,-0.12967 -0.240373,-0.23581 -0.406483,-0.31984 -0.166114,-0.084 -0.381079,-0.12575 -0.644903,-0.12575 -0.231903,0 -0.452735,0.043 -0.662489,0.12968 -0.209105,0.0861 -0.393456,0.20715 -0.552402,0.36282 -0.159596,0.15567 -0.287275,0.34004 -0.382383,0.55305 -0.09576,0.21303 -0.143309,0.44949 -0.143309,0.7081 0,0.25861 0.04755,0.49442 0.143309,0.70745 0.09512,0.21301 0.222784,0.39801 0.382383,0.55305 0.158949,0.1564 0.343297,0.27685 0.552402,0.3635 0.209754,0.0861 0.430586,0.12901 0.662489,0.12901 0.263824,0 0.47879,-0.0417 0.644903,-0.12574 0.166114,-0.0835 0.301604,-0.19022 0.406483,-0.31984 v 1.36536 c -0.03648,-0.043 -0.07557,-0.0717 -0.11596,-0.0861 -0.02281,-0.009 -0.04365,-0.0166 -0.06188,-0.0215 -0.01828,-0.005 -0.03843,-0.008 -0.06123,-0.008 -0.05015,0 -0.146559,0.0188 -0.28988,0.0572 -0.143956,0.0383 -0.31789,0.0572 -0.522435,0.0572 -0.377822,0 -0.728283,-0.0657 -1.051385,-0.19737 -0.323104,-0.13165 -0.605165,-0.31658 -0.84619,-0.5537 -0.241676,-0.23711 -0.430586,-0.51919 -0.566732,-0.8475 -0.136792,-0.32831 -0.205195,-0.68659 -0.205195,-1.07419 0,-0.38823 0.0684,-0.74651 0.205195,-1.07482 0.136145,-0.32768 0.325056,-0.61038 0.566732,-0.84751 0.241025,-0.23711 0.523086,-0.42145 0.84619,-0.55371 0.323102,-0.13165 0.673563,-0.19737 1.051385,-0.19737 0.104223,0 0.19803,0.005 0.280109,0.0185 0.08143,0.0131 0.156992,0.0255 0.224738,0.0396 0.06383,0.0148 0.121822,0.028 0.174571,0.0396 0.0521,0.0105 0.09641,0.0185 0.132895,0.0185 0.05471,0 0.100323,-0.0131 0.136791,-0.0396 0.03583,-0.0268 0.07036,-0.0516 0.102273,-0.0755 v 1.36536 0"
       style="fill:#231f20;fill-opacity:1;fill-rule:nonzero;stroke:none;stroke-width:0.0651416"
       id="path20" />
    <path
       d="m 56.012231,173.0237 v -1.82527 c 0,-0.067 -0.01698,-0.12365 -0.05082,-0.16932 -0.03453,-0.0449 -0.07621,-0.0848 -0.126376,-0.11803 h 1.276775 c -0.05016,0.0332 -0.0925,0.0729 -0.126376,0.11803 -0.03453,0.0457 -0.05146,0.10233 -0.05146,0.16932 v 4.54101 c 0,0.067 0.01698,0.12366 0.05146,0.16934 0.03386,0.0457 0.07621,0.0848 0.126376,0.11855 h -1.276775 c 0.05015,-0.0338 0.09184,-0.073 0.126376,-0.11855 0.03386,-0.0457 0.05082,-0.10233 0.05082,-0.16934 v -1.86823 h -1.576426 v 1.86823 c 0,0.067 0.01698,0.12366 0.05081,0.16934 0.03453,0.0457 0.07621,0.0848 0.126376,0.11855 H 53.3297 c 0.05015,-0.0338 0.09184,-0.073 0.126375,-0.11855 0.03386,-0.0457 0.05082,-0.10233 0.05082,-0.16934 v -4.54101 c 0,-0.067 -0.01698,-0.12365 -0.05082,-0.16932 -0.03453,-0.0449 -0.07621,-0.0848 -0.126375,-0.11803 h 1.28329 c -0.05016,0.0332 -0.09184,0.0729 -0.126376,0.11803 -0.03386,0.0457 -0.05081,0.10233 -0.05081,0.16932 v 1.82527 h 1.576426 v 0"
       style="fill:#231f20;fill-opacity:1;fill-rule:nonzero;stroke:none;stroke-width:0.0651416"
       id="path22" />
    <path
       d="m 60.292686,171.71565 c -0.231905,0 -0.452734,0.0444 -0.661839,0.13295 -0.209755,0.0886 -0.393456,0.21238 -0.553051,0.37001 -0.159596,0.15824 -0.286625,0.34396 -0.382383,0.55696 -0.09576,0.21301 -0.143309,0.44426 -0.143309,0.69375 0,0.24884 0.04755,0.4801 0.143309,0.69312 0.09576,0.21301 0.222785,0.39866 0.382383,0.55694 0.159595,0.15825 0.343296,0.28142 0.553051,0.37001 0.209105,0.0886 0.429934,0.13296 0.661839,0.13296 0.232556,0 0.454037,-0.0444 0.665747,-0.13296 0.21171,-0.0886 0.397364,-0.2117 0.556309,-0.37001 0.159596,-0.15824 0.286625,-0.34393 0.382382,-0.55694 0.09576,-0.21302 0.143309,-0.44428 0.143309,-0.69312 0,-0.24949 -0.04755,-0.48074 -0.143309,-0.69375 -0.09576,-0.213 -0.222785,-0.39868 -0.382382,-0.55696 -0.15895,-0.1577 -0.344599,-0.28142 -0.556309,-0.37001 -0.21171,-0.0886 -0.433191,-0.13295 -0.665747,-0.13295 z m 0,4.42638 c -0.36414,0 -0.707437,-0.0691 -1.03054,-0.20846 -0.323103,-0.13867 -0.605166,-0.32766 -0.84619,-0.56738 -0.241675,-0.23972 -0.433844,-0.52243 -0.577154,-0.84815 -0.14331,-0.32569 -0.214966,-0.67552 -0.214966,-1.04877 0,-0.37391 0.07167,-0.72372 0.214966,-1.04942 0.143309,-0.32572 0.335479,-0.60843 0.577154,-0.84815 0.241024,-0.23908 0.523087,-0.42864 0.84619,-0.56739 0.323103,-0.13867 0.6664,-0.20845 1.03054,-0.20845 0.364142,0 0.70809,0.0696 1.031193,0.20845 0.323101,0.13867 0.606468,0.32831 0.850098,0.56739 0.242978,0.23972 0.436448,0.52243 0.57976,0.84815 0.143309,0.3257 0.215617,0.67551 0.215617,1.04942 0,0.37325 -0.07231,0.72308 -0.215617,1.04877 -0.14331,0.32572 -0.336782,0.60843 -0.57976,0.84815 -0.24363,0.23972 -0.526997,0.42864 -0.850098,0.56738 -0.323103,0.13941 -0.667051,0.20846 -1.031193,0.20846 v 0"
       style="fill:#231f20;fill-opacity:1;fill-rule:nonzero;stroke:none;stroke-width:0.0651416"
       id="path24" />
    <path
       d="m 64.620694,172.64979 h -0.01366 v 3.08965 c 0,0.067 0.01755,0.12366 0.05146,0.16934 0.03388,0.0457 0.07622,0.0848 0.126376,0.11855 h -1.283289 c 0.0495,-0.0338 0.09184,-0.073 0.125735,-0.11855 0.03453,-0.0457 0.05146,-0.10233 0.05146,-0.16934 v -4.54101 c 0,-0.067 -0.01698,-0.12365 -0.05146,-0.16932 -0.03388,-0.0449 -0.07622,-0.0848 -0.125735,-0.11803 h 1.139977 l 1.877383,3.28381 h 0.01366 v -2.99652 c 0,-0.067 -0.01755,-0.12366 -0.05146,-0.16932 -0.03386,-0.0449 -0.07621,-0.0848 -0.126376,-0.11803 h 1.283289 c -0.05016,0.0332 -0.09184,0.0729 -0.125735,0.11803 -0.03453,0.0457 -0.05146,0.10232 -0.05146,0.16932 v 4.54102 c 0,0.067 0.01698,0.12366 0.05146,0.16932 0.03387,0.0457 0.07557,0.0848 0.125735,0.11855 h -1.07158 l -1.94578,-3.37759 v 0"
       style="fill:#231f20;fill-opacity:1;fill-rule:nonzero;stroke:none;stroke-width:0.0651416"
       id="path26" />
    <path
       d="m 69.31089,172.64979 h -0.01366 v 3.08965 c 0,0.067 0.01699,0.12366 0.05146,0.16934 0.03386,0.0457 0.07621,0.0848 0.125734,0.11855 h -1.283298 c 0.05015,-0.0338 0.0925,-0.073 0.126376,-0.11855 0.03453,-0.0457 0.05146,-0.10233 0.05146,-0.16934 v -4.54101 c 0,-0.067 -0.01699,-0.12365 -0.05146,-0.16932 -0.03386,-0.0449 -0.07621,-0.0848 -0.126376,-0.11803 h 1.139979 l 1.877381,3.28381 h 0.01366 v -2.99652 c 0,-0.067 -0.01699,-0.12366 -0.05082,-0.16932 -0.03453,-0.0449 -0.07621,-0.0848 -0.126376,-0.11803 h 1.283289 c -0.05015,0.0332 -0.09184,0.0729 -0.126375,0.11803 -0.03386,0.0457 -0.05082,0.10232 -0.05082,0.16932 v 4.54102 c 0,0.067 0.01698,0.12366 0.05082,0.16932 0.03453,0.0457 0.07621,0.0848 0.126375,0.11855 h -1.07158 l -1.945779,-3.37759 v 0"
       style="fill:#231f20;fill-opacity:1;fill-rule:nonzero;stroke:none;stroke-width:0.0651416"
       id="path28" />
    <path
       d="m 75.625716,174.08682 -0.696362,-2.01224 -0.01366,-0.0645 -0.628616,2.07673 z m -1.638962,0.84813 -0.108777,0.28012 c -0.03648,0.0958 -0.07167,0.19867 -0.106172,0.30942 -0.03389,0.11005 -0.05081,0.19868 -0.05081,0.26578 0,0.0529 0.0098,0.0976 0.03062,0.13608 0.0202,0.0385 0.0417,0.0724 0.06448,0.10102 h -1.262443 c 0.05015,-0.0529 0.09901,-0.11594 0.146559,-0.19085 0.04755,-0.0742 0.08533,-0.15179 0.112689,-0.23323 l 1.4266,-3.88049 c 0.03648,-0.0958 0.07296,-0.19865 0.109443,-0.30875 0.03648,-0.11005 0.05471,-0.19869 0.05471,-0.26644 0,-0.0521 -0.01165,-0.0977 -0.03453,-0.13609 -0.02281,-0.0383 -0.04559,-0.0724 -0.06776,-0.10023 h 1.024026 l 1.774457,4.69216 c 0.02736,0.0814 0.06515,0.15898 0.112688,0.23322 0.04755,0.075 0.09641,0.13812 0.14656,0.19085 h -1.283286 c 0.02281,-0.0286 0.04429,-0.0625 0.06515,-0.10101 0.0202,-0.0383 0.03062,-0.0835 0.03062,-0.1361 0,-0.067 -0.01698,-0.15566 -0.05146,-0.26577 -0.03387,-0.11083 -0.06904,-0.21368 -0.105532,-0.30942 l -0.109443,-0.28012 h -1.918421 v 0"
       style="fill:#231f20;fill-opacity:1;fill-rule:nonzero;stroke:none;stroke-width:0.0651416"
       id="path30" />
    <path
       d="m 78.949893,170.91115 1.058551,2.9822 h 0.01311 l 1.078746,-2.9822 h 1.037705 c -0.05927,0.0476 -0.09641,0.10154 -0.112689,0.16157 -0.01569,0.0601 -0.02345,0.11594 -0.02345,0.16878 0,0.0383 0.0033,0.0899 0.0098,0.15436 0.0072,0.0645 0.01496,0.13296 0.0241,0.20455 0.009,0.0724 0.01828,0.14402 0.02736,0.21561 0.009,0.0724 0.01828,0.12968 0.02736,0.17266 l 0.525694,3.60753 c 0.01828,0.11005 0.04103,0.19998 0.0684,0.26969 0.02736,0.0691 0.05862,0.12313 0.09512,0.16157 h -1.20121 c 0.08664,-0.0724 0.129621,-0.16545 0.129621,-0.28076 0,-0.0573 -0.0064,-0.13868 -0.0202,-0.24428 -0.01366,-0.10494 -0.02736,-0.21302 -0.04104,-0.32311 l -0.307469,-2.3998 h -0.01366 l -1.310649,3.39126 h -0.01366 l -1.28329,-3.39126 h -0.01366 l -0.307468,2.32816 c -0.02736,0.17727 -0.04886,0.31855 -0.0645,0.42408 -0.01625,0.10494 -0.0241,0.1915 -0.0241,0.2586 0,0.0958 0.03648,0.1745 0.109444,0.23711 h -1.133465 c 0.0365,-0.0383 0.0697,-0.0925 0.09901,-0.16157 0.02997,-0.0696 0.05343,-0.15954 0.07164,-0.26969 l 0.519179,-3.60753 c 0.0039,-0.043 0.01243,-0.10023 0.02345,-0.17266 0.01165,-0.0717 0.0215,-0.14328 0.03062,-0.21561 0.009,-0.0717 0.01755,-0.13998 0.0241,-0.20455 0.0072,-0.0645 0.01034,-0.11593 0.01034,-0.15436 0,-0.0529 -0.0077,-0.10874 -0.0241,-0.16878 -0.01569,-0.0598 -0.05082,-0.11397 -0.105532,-0.16157 h 1.016861 v 0"
       style="fill:#231f20;fill-opacity:1;fill-rule:nonzero;stroke:none;stroke-width:0.0651416"
       id="path32" />
    <path
       d="m 86.889351,172.64979 h -0.01366 v 3.08965 c 0,0.067 0.01698,0.12366 0.05146,0.16934 0.03386,0.0457 0.07621,0.0848 0.126376,0.11855 h -1.283941 c 0.05016,-0.0338 0.09249,-0.073 0.126376,-0.11855 0.03453,-0.0457 0.05146,-0.10233 0.05146,-0.16934 v -4.54101 c 0,-0.067 -0.01699,-0.12365 -0.05146,-0.16932 -0.03386,-0.0449 -0.07621,-0.0848 -0.126376,-0.11803 h 1.139977 l 1.877382,3.28381 h 0.01366 v -2.99652 c 0,-0.067 -0.01698,-0.12366 -0.05081,-0.16932 -0.03453,-0.0449 -0.07621,-0.0848 -0.126376,-0.11803 h 1.283289 c -0.05016,0.0332 -0.09184,0.0729 -0.126376,0.11803 -0.03453,0.0457 -0.05082,0.10232 -0.05082,0.16932 v 4.54102 c 0,0.067 0.01625,0.12366 0.05082,0.16932 0.03453,0.0457 0.07621,0.0848 0.126376,0.11855 h -1.07158 l -1.945779,-3.37759 v 0"
       style="fill:#231f20;fill-opacity:1;fill-rule:nonzero;stroke:none;stroke-width:0.0651416"
       id="path34" />
    <path
       d="m 93.203528,174.08682 -0.695713,-2.01224 -0.01366,-0.0645 -0.627966,2.07673 z m -1.63766,0.84813 -0.109444,0.28012 c -0.03647,0.0958 -0.07164,0.19867 -0.105531,0.30942 -0.03453,0.11005 -0.05146,0.19868 -0.05146,0.26578 0,0.0529 0.01034,0.0976 0.03062,0.13608 0.02084,0.0385 0.04169,0.0724 0.06515,0.10102 h -1.263095 c 0.05016,-0.0529 0.09902,-0.11594 0.146559,-0.19085 0.04822,-0.0742 0.08533,-0.15179 0.112688,-0.23323 l 1.426601,-3.88049 c 0.03648,-0.0958 0.07295,-0.19865 0.109444,-0.30875 0.03649,-0.11005 0.05471,-0.19869 0.05471,-0.26644 0,-0.0521 -0.01165,-0.0977 -0.03386,-0.13609 -0.02345,-0.0383 -0.04626,-0.0724 -0.06904,-0.10023 h 1.024026 l 1.775108,4.69216 c 0.02736,0.0814 0.06515,0.15898 0.112689,0.23322 0.0482,0.075 0.09641,0.13812 0.147223,0.19085 h -1.283941 c 0.02281,-0.0286 0.04495,-0.0625 0.06515,-0.10101 0.0202,-0.0383 0.03062,-0.0835 0.03062,-0.1361 0,-0.067 -0.01699,-0.15566 -0.05082,-0.26577 -0.03453,-0.11083 -0.0697,-0.21368 -0.106172,-0.30942 L 93.48364,174.9351 h -1.917772 v 0"
       style="fill:#231f20;fill-opacity:1;fill-rule:nonzero;stroke:none;stroke-width:0.0651416"
       id="path36" />
    <path
       d="m 97.969288,170.91115 v 1.14193 c -0.01441,-0.0378 -0.03257,-0.075 -0.05471,-0.11135 -0.02281,-0.0359 -0.05928,-0.067 -0.109444,-0.0933 -0.05016,-0.026 -0.117256,-0.0482 -0.201288,-0.0645 -0.08403,-0.0166 -0.192168,-0.0255 -0.324406,-0.0255 h -0.375215 v 3.98078 c 0,0.067 0.01569,0.12366 0.04755,0.16934 0.03193,0.0457 0.07295,0.0848 0.12313,0.11855 h -1.276776 c 0.05015,-0.0338 0.0925,-0.0729 0.126375,-0.11855 0.03388,-0.0457 0.05146,-0.10233 0.05146,-0.16934 v -3.98078 H 95.59359 c -0.13223,0 -0.239068,0.009 -0.321147,0.0255 -0.08208,0.0166 -0.147871,0.0383 -0.198031,0.0645 -0.05015,0.026 -0.08729,0.0572 -0.112689,0.0933 -0.02476,0.0364 -0.04429,0.0737 -0.05798,0.11135 v -1.14193 h 3.065565 v 0"
       style="fill:#231f20;fill-opacity:1;fill-rule:nonzero;stroke:none;stroke-width:0.0651416"
       id="path38" />
    <path
       d="m 98.330823,176.02738 c 0.05016,-0.0338 0.09184,-0.0729 0.126376,-0.11855 0.03389,-0.0457 0.05082,-0.10233 0.05082,-0.16932 v -4.54103 c 0,-0.067 -0.01698,-0.12365 -0.05082,-0.16932 -0.03453,-0.0449 -0.07621,-0.0848 -0.126376,-0.11802 h 1.28329 c -0.05016,0.0332 -0.09184,0.0729 -0.126375,0.11802 -0.03388,0.0457 -0.05081,0.10233 -0.05081,0.16932 v 4.54103 c 0,0.067 0.01699,0.12365 0.05081,0.16932 0.03453,0.0457 0.07621,0.0848 0.126375,0.11855 h -1.28329 v 0"
       style="fill:#231f20;fill-opacity:1;fill-rule:nonzero;stroke:none;stroke-width:0.0651416"
       id="path40" />
    <path
       d="m 102.87054,171.71565 c -0.23255,0 -0.45338,0.0444 -0.66249,0.13295 -0.2091,0.0886 -0.39345,0.21238 -0.55305,0.37001 -0.15895,0.15824 -0.28662,0.34396 -0.38238,0.55696 -0.0951,0.21301 -0.14331,0.44426 -0.14331,0.69375 0,0.24884 0.0482,0.4801 0.14331,0.69312 0.0957,0.21301 0.22343,0.39866 0.38238,0.55694 0.15959,0.15825 0.34395,0.28142 0.55305,0.37001 0.20911,0.0886 0.42994,0.13296 0.66249,0.13296 0.23191,0 0.45339,-0.0444 0.6651,-0.13296 0.21171,-0.0886 0.39736,-0.2117 0.55631,-0.37001 0.15959,-0.15824 0.28727,-0.34393 0.38238,-0.55694 0.0958,-0.21302 0.14395,-0.44428 0.14395,-0.69312 0,-0.24949 -0.0482,-0.48074 -0.14395,-0.69375 -0.0951,-0.213 -0.22279,-0.39868 -0.38238,-0.55696 -0.15895,-0.1577 -0.3446,-0.28142 -0.55631,-0.37001 -0.21171,-0.0886 -0.43319,-0.13295 -0.6651,-0.13295 z m 0,4.42638 c -0.36414,0 -0.70809,-0.0691 -1.03119,-0.20846 -0.3231,-0.13867 -0.60517,-0.32766 -0.84619,-0.56738 -0.24167,-0.23972 -0.43384,-0.52243 -0.57715,-0.84815 -0.14331,-0.32569 -0.21497,-0.67552 -0.21497,-1.04877 0,-0.37391 0.0717,-0.72372 0.21497,-1.04942 0.14331,-0.32572 0.33548,-0.60843 0.57715,-0.84815 0.24102,-0.23908 0.52309,-0.42864 0.84619,-0.56739 0.3231,-0.13867 0.66705,-0.20845 1.03119,-0.20845 0.36414,0 0.70744,0.0696 1.03054,0.20845 0.3231,0.13867 0.60647,0.32831 0.8501,0.56739 0.24298,0.23972 0.4371,0.52243 0.57976,0.84815 0.14396,0.3257 0.21562,0.67551 0.21562,1.04942 0,0.37325 -0.0716,0.72308 -0.21562,1.04877 -0.14266,0.32572 -0.33678,0.60843 -0.57976,0.84815 -0.24363,0.23972 -0.527,0.42864 -0.8501,0.56738 -0.3231,0.13941 -0.6664,0.20846 -1.03054,0.20846 v 0"
       style="fill:#231f20;fill-opacity:1;fill-rule:nonzero;stroke:none;stroke-width:0.0651416"
       id="path42" />
    <path
       d="m 107.1979,172.64979 h -0.0131 v 3.08965 c 0,0.067 0.017,0.12366 0.0508,0.16934 0.0345,0.0457 0.0762,0.0848 0.12638,0.11855 h -1.28329 c 0.0502,-0.0338 0.0918,-0.073 0.12637,-0.11855 0.0339,-0.0457 0.0508,-0.10233 0.0508,-0.16934 v -4.54101 c 0,-0.067 -0.017,-0.12365 -0.0508,-0.16932 -0.0345,-0.0449 -0.0762,-0.0848 -0.12637,-0.11803 h 1.13997 l 1.87738,3.28381 h 0.0137 v -2.99652 c 0,-0.067 -0.017,-0.12366 -0.0515,-0.16932 -0.0339,-0.0449 -0.0762,-0.0848 -0.12573,-0.11803 h 1.28329 c -0.0502,0.0332 -0.0925,0.0729 -0.12638,0.11803 -0.0345,0.0457 -0.0515,0.10232 -0.0515,0.16932 v 4.54102 c 0,0.067 0.017,0.12366 0.0515,0.16932 0.0339,0.0457 0.0762,0.0848 0.12638,0.11855 h -1.07223 l -1.94578,-3.37759 v 0"
       style="fill:#231f20;fill-opacity:1;fill-rule:nonzero;stroke:none;stroke-width:0.0651416"
       id="path44" />
    <path
       d="m 113.51273,174.08682 -0.69572,-2.01224 -0.0144,-0.0645 -0.62797,2.07673 z m -1.63832,0.84813 -0.10877,0.28012 c -0.0365,0.0958 -0.0717,0.19867 -0.10617,0.30942 -0.0339,0.11005 -0.0515,0.19868 -0.0515,0.26578 0,0.0529 0.0103,0.0976 0.0313,0.13608 0.0202,0.0385 0.0417,0.0724 0.0645,0.10102 h -1.2631 c 0.0502,-0.0529 0.099,-0.11594 0.14723,-0.19085 0.0476,-0.0742 0.0853,-0.15179 0.11269,-0.23323 l 1.4266,-3.88049 c 0.0365,-0.0958 0.073,-0.19865 0.10944,-0.30875 0.0358,-0.11005 0.0541,-0.19869 0.0541,-0.26644 0,-0.0521 -0.0111,-0.0977 -0.0339,-0.13609 -0.0228,-0.0383 -0.0456,-0.0724 -0.0684,-0.10023 h 1.02402 l 1.77511,4.69216 c 0.0274,0.0814 0.0652,0.15898 0.11269,0.23322 0.0476,0.075 0.0964,0.13812 0.14656,0.19085 h -1.28328 c 0.0228,-0.0286 0.0443,-0.0625 0.0651,-0.10101 0.0202,-0.0383 0.0306,-0.0835 0.0306,-0.1361 0,-0.067 -0.0175,-0.15566 -0.0515,-0.26577 -0.0339,-0.11083 -0.0697,-0.21368 -0.10554,-0.30942 l -0.10944,-0.28012 h -1.91842 v 0"
       style="fill:#231f20;fill-opacity:1;fill-rule:nonzero;stroke:none;stroke-width:0.0651416"
       id="path46" />
    <path
       d="m 116.70075,170.91115 c -0.0502,0.0332 -0.0905,0.0729 -0.12246,0.11803 -0.0319,0.0455 -0.0482,0.10232 -0.0482,0.16932 v 3.9808 h 1.20904 c 0.12704,0 0.22734,-0.0202 0.3003,-0.0614 0.0724,-0.0404 0.13424,-0.0971 0.18373,-0.16879 v 1.07811 h -2.79848 c 0.0495,-0.0338 0.0918,-0.0729 0.12637,-0.11855 0.0339,-0.0457 0.0508,-0.10233 0.0508,-0.16932 v -4.54103 c 0,-0.067 -0.017,-0.12365 -0.0508,-0.16932 -0.0345,-0.0449 -0.0769,-0.0848 -0.12637,-0.11803 h 1.27612 v 0"
       style="fill:#231f20;fill-opacity:1;fill-rule:nonzero;stroke:none;stroke-width:0.0651416"
       id="path48" />
    <path
       d="m 123.1791,176.14203 c -0.27752,0 -0.5244,-0.0529 -0.74002,-0.1577 -0.21627,-0.1056 -0.39736,-0.23973 -0.54329,-0.40258 -0.14532,-0.16287 -0.25665,-0.34395 -0.33417,-0.54262 -0.0776,-0.19868 -0.11596,-0.39149 -0.11596,-0.57847 v -3.26228 c 0,-0.067 -0.0185,-0.12365 -0.0515,-0.16932 -0.0338,-0.0449 -0.0763,-0.0848 -0.1263,-0.11803 h 1.27677 c -0.0502,0.0332 -0.0912,0.0729 -0.12316,0.11803 -0.0319,0.0457 -0.0476,0.10232 -0.0476,0.16932 v 2.99651 c 0,0.3205 0.0698,0.57259 0.20781,0.75433 0.13941,0.18245 0.33808,0.27296 0.59735,0.27296 0.2599,0 0.4599,-0.0904 0.60125,-0.27296 0.1407,-0.1817 0.2117,-0.43383 0.2117,-0.75433 v -2.99651 c 0,-0.067 -0.0166,-0.12365 -0.0515,-0.16932 -0.0338,-0.0449 -0.0763,-0.0848 -0.1263,-0.11803 h 1.27679 c -0.0502,0.0332 -0.0912,0.0729 -0.12316,0.11803 -0.0319,0.0457 -0.0476,0.10232 -0.0476,0.16932 v 3.26228 c 0,0.18698 -0.0391,0.37979 -0.11596,0.57847 -0.0776,0.19867 -0.19021,0.37978 -0.33808,0.54262 -0.14791,0.16288 -0.33028,0.29706 -0.5459,0.40258 -0.21626,0.10494 -0.46316,0.1577 -0.74131,0.1577 v 0"
       style="fill:#231f20;fill-opacity:1;fill-rule:nonzero;stroke:none;stroke-width:0.0651416"
       id="path50" />
    <path
       d="m 126.72215,172.64979 h -0.013 v 3.08965 c 0,0.067 0.0166,0.12366 0.0508,0.16934 0.0345,0.0457 0.0763,0.0848 0.1263,0.11855 h -1.28331 c 0.0502,-0.0338 0.0918,-0.073 0.1263,-0.11855 0.0338,-0.0457 0.0508,-0.10233 0.0508,-0.16934 v -4.54101 c 0,-0.067 -0.0166,-0.12365 -0.0508,-0.16932 -0.0345,-0.0449 -0.0763,-0.0848 -0.1263,-0.11803 h 1.13998 l 1.87739,3.28381 h 0.0131 v -2.99652 c 0,-0.067 -0.0166,-0.12366 -0.0515,-0.16932 -0.0338,-0.0449 -0.0763,-0.0848 -0.12575,-0.11803 h 1.28328 c -0.0508,0.0332 -0.0925,0.0729 -0.12627,0.11803 -0.0345,0.0457 -0.0516,0.10232 -0.0516,0.16932 v 4.54102 c 0,0.067 0.0166,0.12366 0.0516,0.16932 0.0338,0.0457 0.0755,0.0848 0.12627,0.11855 h -1.07223 l -1.94576,-3.37759 v 0"
       style="fill:#231f20;fill-opacity:1;fill-rule:nonzero;stroke:none;stroke-width:0.0651416"
       id="path52" />
    <path
       d="m 130.35443,176.02738 c 0.0502,-0.0338 0.0917,-0.0729 0.12627,-0.11855 0.0338,-0.0457 0.0508,-0.10233 0.0508,-0.16932 v -4.54103 c 0,-0.067 -0.0166,-0.12365 -0.0508,-0.16932 -0.0346,-0.0449 -0.0763,-0.0848 -0.12627,-0.11802 h 1.2833 c -0.0502,0.0332 -0.0917,0.0729 -0.12627,0.11802 -0.0338,0.0457 -0.0508,0.10233 -0.0508,0.16932 v 4.54103 c 0,0.067 0.0166,0.12365 0.0508,0.16932 0.0345,0.0457 0.0763,0.0848 0.12627,0.11855 h -1.2833 v 0"
       style="fill:#231f20;fill-opacity:1;fill-rule:nonzero;stroke:none;stroke-width:0.0651416"
       id="path54" />
    <path
       d="m 136.49794,170.91115 c -0.0495,0.0529 -0.0989,0.11593 -0.14661,0.19022 -0.0476,0.0742 -0.0853,0.15178 -0.11267,0.23321 l -1.42661,3.88049 c -0.0365,0.0958 -0.0729,0.19867 -0.10952,0.30942 -0.0366,0.11005 -0.0547,0.19868 -0.0547,0.26578 0,0.0529 0.0105,0.0976 0.0345,0.13608 0.0228,0.0385 0.0449,0.0724 0.0678,0.10102 h -1.0097 l -1.74122,-4.6928 c -0.0273,-0.0814 -0.0652,-0.15898 -0.11267,-0.23322 -0.0476,-0.0742 -0.0964,-0.13738 -0.1466,-0.1902 h 1.31064 c -0.0274,0.028 -0.0516,0.0619 -0.0716,0.10023 -0.0209,0.0385 -0.0306,0.084 -0.0306,0.1361 0,0.0678 0.0196,0.15639 0.058,0.26644 0.0385,0.11004 0.0737,0.21301 0.1056,0.30875 l 1.01035,2.93203 h 0.0131 l 1.02404,-2.93203 c 0.0319,-0.0958 0.0657,-0.19867 0.10232,-0.30875 0.0366,-0.11005 0.0547,-0.1987 0.0547,-0.26644 0,-0.0521 -0.0105,-0.0976 -0.0306,-0.1361 -0.0202,-0.0383 -0.0423,-0.0724 -0.0652,-0.10023 h 1.27677 v 0"
       style="fill:#231f20;fill-opacity:1;fill-rule:nonzero;stroke:none;stroke-width:0.0651416"
       id="path56" />
    <path
       d="m 136.51879,176.02738 c 0.0495,-0.0338 0.0917,-0.0729 0.12627,-0.11855 0.0338,-0.0457 0.0508,-0.10233 0.0508,-0.16932 v -4.54103 c 0,-0.067 -0.0166,-0.12365 -0.0508,-0.16932 -0.0345,-0.0449 -0.0768,-0.0848 -0.12627,-0.11802 h 2.99651 v 1.07745 c -0.0547,-0.0717 -0.11724,-0.12784 -0.1876,-0.16879 -0.0704,-0.0404 -0.16933,-0.0614 -0.29706,-0.0614 h -1.40641 v 1.26505 h 0.85336 c 0.10023,0 0.18299,-0.0131 0.2495,-0.0396 0.0657,-0.026 0.12628,-0.0657 0.18114,-0.11855 v 1.16406 c -0.0547,-0.0529 -0.11515,-0.0917 -0.18114,-0.11855 -0.0665,-0.026 -0.14919,-0.0396 -0.2495,-0.0396 h -0.85336 v 1.30803 h 1.40641 c 0.12784,0 0.2267,-0.0202 0.29706,-0.0612 0.0704,-0.0404 0.13294,-0.0971 0.1876,-0.16877 v 1.07809 h -2.99651 v 0"
       style="fill:#231f20;fill-opacity:1;fill-rule:nonzero;stroke:none;stroke-width:0.0651416"
       id="path58" />
    <path
       d="m 141.14059,173.10252 c 0.0495,0.0338 0.11802,0.0503 0.20453,0.0503 0.20911,0 0.37654,-0.0691 0.50159,-0.20846 0.12496,-0.13868 0.18826,-0.31332 0.18826,-0.52438 0,-0.20585 -0.0632,-0.37977 -0.18826,-0.52114 -0.12496,-0.14127 -0.29248,-0.21171 -0.50159,-0.21171 -0.0866,0 -0.1551,0.0166 -0.20453,0.0502 z m 1.39924,2.92486 c 0.0365,-0.043 0.0657,-0.0925 0.0886,-0.14791 0.0228,-0.0547 0.0338,-0.11803 0.0338,-0.19021 0,-0.17726 -0.0351,-0.35697 -0.10546,-0.53872 -0.0704,-0.1817 -0.17063,-0.35113 -0.3003,-0.5068 -0.12968,-0.15566 -0.28925,-0.29315 -0.47815,-0.41301 -0.18892,-0.11986 -0.40126,-0.20584 -0.63774,-0.2586 v 1.76729 c 0,0.067 0.0166,0.12365 0.0508,0.16932 0.0345,0.0457 0.0763,0.0848 0.12627,0.11855 h -1.28328 c 0.0495,-0.0338 0.0917,-0.0729 0.12627,-0.11855 0.0338,-0.0457 0.0508,-0.10233 0.0508,-0.16932 v -4.9436 c 0.10024,0.0768 0.21171,0.11528 0.33484,0.11528 0.0866,0 0.19541,-0.0196 0.32765,-0.058 0.13165,-0.0385 0.28401,-0.0572 0.45728,-0.0572 0.21824,0 0.4228,0.041 0.6143,0.12247 0.19087,0.0814 0.35697,0.19348 0.49834,0.33744 0.14071,0.14403 0.25273,0.31398 0.33417,0.51007 0.082,0.19672 0.12313,0.41235 0.12313,0.64686 0,0.30159 -0.0503,0.55566 -0.14975,0.76149 -0.10023,0.2065 -0.29378,0.34265 -0.58042,0.40975 v 0.0148 c 0.20455,0.0482 0.38693,0.13092 0.54589,0.24819 0.15954,0.11724 0.29834,0.25732 0.41691,0.42016 0.11776,0.16287 0.21235,0.34135 0.2827,0.53548 0.0711,0.19411 0.11986,0.38888 0.14717,0.58561 0.0274,0.21105 0.0632,0.36024 0.10873,0.44883 0.0457,0.0886 0.0938,0.15252 0.1433,0.19086 h -1.27612 v 0"
       style="fill:#231f20;fill-opacity:1;fill-rule:nonzero;stroke:none;stroke-width:0.0651416"
       id="path60" />
    <path
       d="m 146.06203,172.17556 h -0.0131 c -0.0814,-0.16747 -0.1817,-0.29835 -0.3003,-0.39149 -0.11803,-0.0938 -0.27296,-0.14016 -0.46382,-0.14016 -0.13221,0 -0.23515,0.0383 -0.30747,0.11463 -0.0729,0.0768 -0.10952,0.17007 -0.10952,0.2801 0,0.11986 0.0423,0.22799 0.12627,0.32375 0.084,0.0958 0.19151,0.19022 0.32115,0.28337 0.12967,0.0938 0.26837,0.19217 0.41623,0.2951 0.14792,0.10284 0.28664,0.22475 0.41627,0.36609 0.12967,0.14127 0.23647,0.30812 0.32116,0.49964 0.084,0.19152 0.12627,0.41951 0.12627,0.68268 0,0.25406 -0.0423,0.48271 -0.12627,0.6866 -0.0848,0.20325 -0.20261,0.37716 -0.35504,0.52048 -0.15234,0.14403 -0.33353,0.25404 -0.54263,0.33091 -0.20974,0.0763 -0.4397,0.11463 -0.68984,0.11463 -0.0776,0 -0.15382,-0.005 -0.22865,-0.0185 -0.075,-0.0131 -0.14459,-0.0253 -0.20845,-0.0396 -0.0632,-0.0148 -0.11933,-0.0273 -0.16674,-0.0396 -0.0481,-0.0105 -0.0899,-0.0185 -0.12627,-0.0185 -0.0547,0 -0.10023,0.0105 -0.13683,0.0359 -0.0365,0.0234 -0.0704,0.0502 -0.10233,0.0789 v -1.48002 h 0.0131 c 0.21368,0.39279 0.52309,0.58887 0.92827,0.58887 0.24168,0 0.4371,-0.0678 0.58758,-0.20453 0.14976,-0.13683 0.22474,-0.32963 0.22474,-0.57847 0,-0.17265 -0.0417,-0.31723 -0.12575,-0.43449 -0.0848,-0.11802 -0.19151,-0.22409 -0.32115,-0.31985 -0.12967,-0.0957 -0.26837,-0.19086 -0.41623,-0.28402 -0.14792,-0.093 -0.28665,-0.20129 -0.41692,-0.32376 -0.12967,-0.12182 -0.23646,-0.26577 -0.32051,-0.43056 -0.0848,-0.16546 -0.12627,-0.37261 -0.12627,-0.62212 0,-0.1863 0.0319,-0.35761 0.0958,-0.51331 0.0639,-0.15568 0.15309,-0.28858 0.26969,-0.39932 0.11593,-0.11005 0.2508,-0.19477 0.40583,-0.25469 0.15511,-0.0601 0.32572,-0.0899 0.51201,-0.0899 0.0547,0 0.10952,0.005 0.16415,0.0185 0.0547,0.0131 0.10874,0.0255 0.16342,0.0396 0.0503,0.0148 0.0984,0.0281 0.1433,0.0396 0.0455,0.0105 0.0822,0.0185 0.10952,0.0185 0.0502,0 0.0977,-0.009 0.14329,-0.0293 0.0457,-0.0188 0.084,-0.0476 0.11594,-0.0861 v 1.37971 0"
       style="fill:#231f20;fill-opacity:1;fill-rule:nonzero;stroke:none;stroke-width:0.0651416"
       id="path62" />
    <path
       d="m 147.14729,176.02738 c 0.0502,-0.0338 0.0925,-0.0729 0.12627,-0.11855 0.0345,-0.0457 0.0515,-0.10233 0.0515,-0.16932 v -4.54103 c 0,-0.067 -0.0166,-0.12365 -0.0515,-0.16932 -0.0338,-0.0449 -0.0763,-0.0848 -0.12627,-0.11802 h 1.28394 c -0.0502,0.0332 -0.0925,0.0729 -0.12627,0.11802 -0.0345,0.0457 -0.0515,0.10233 -0.0515,0.16932 v 4.54103 c 0,0.067 0.0166,0.12365 0.0515,0.16932 0.0338,0.0457 0.0763,0.0848 0.12627,0.11855 h -1.28394 v 0"
       style="fill:#231f20;fill-opacity:1;fill-rule:nonzero;stroke:none;stroke-width:0.0651416"
       id="path64" />
    <path
       d="m 151.85833,170.91115 v 1.14193 c -0.0131,-0.0378 -0.0325,-0.075 -0.0547,-0.11135 -0.0228,-0.0359 -0.0593,-0.067 -0.10952,-0.0933 -0.0503,-0.026 -0.11725,-0.0482 -0.20129,-0.0645 -0.084,-0.0166 -0.19217,-0.0255 -0.32441,-0.0255 h -0.37521 v 3.98078 c 0,0.067 0.0148,0.12366 0.0476,0.16934 0.0319,0.0457 0.0729,0.0848 0.12313,0.11855 h -1.27678 c 0.0502,-0.0338 0.0925,-0.0729 0.12627,-0.11855 0.0338,-0.0457 0.0516,-0.10233 0.0516,-0.16934 v -3.98078 h -0.38238 c -0.13221,0 -0.23907,0.009 -0.32114,0.0255 -0.0814,0.0166 -0.14792,0.0383 -0.19803,0.0645 -0.0503,0.026 -0.0874,0.0572 -0.11266,0.0933 -0.0247,0.0364 -0.0444,0.0737 -0.058,0.11135 v -1.14193 h 3.06556 v 0"
       style="fill:#231f20;fill-opacity:1;fill-rule:nonzero;stroke:none;stroke-width:0.0651416"
       id="path66" />
    <path
       d="m 153.20286,176.02738 c 0.0495,-0.0338 0.0906,-0.0729 0.12247,-0.11855 0.0319,-0.0457 0.0482,-0.10233 0.0482,-0.16932 v -2.1556 l -1.27678,-2.28515 c -0.041,-0.0716 -0.084,-0.14403 -0.12967,-0.21562 -0.0457,-0.0717 -0.10024,-0.12902 -0.16416,-0.17191 h 1.31782 c -0.0229,0.0234 -0.043,0.0476 -0.0619,0.0717 -0.0185,0.0239 -0.0268,0.0529 -0.0268,0.0861 0,0.0338 0.009,0.0742 0.0268,0.12248 0.0189,0.0476 0.0436,0.10285 0.0755,0.1649 l 0.70288,1.35103 h 0.0131 l 0.70353,-1.35103 c 0.0724,-0.12902 0.10874,-0.22474 0.10874,-0.28727 0,-0.0332 -0.009,-0.0619 -0.0274,-0.0861 -0.0185,-0.0239 -0.041,-0.0481 -0.0678,-0.0716 h 1.31066 c -0.0683,0.043 -0.12444,0.10023 -0.16748,0.17191 -0.0436,0.0717 -0.0853,0.14403 -0.12627,0.21562 l -1.28328,2.28517 v 2.15553 c 0,0.067 0.0166,0.12366 0.0515,0.16932 0.034,0.0457 0.0755,0.0848 0.12575,0.11855 h -1.27612 v 0"
       style="fill:#231f20;fill-opacity:1;fill-rule:nonzero;stroke:none;stroke-width:0.0651416"
       id="path68" />
    <path
       d="m 65.743084,162.06233 v -6.82424 h -3.887651 v -2.7659 h 3.887651 v -4.46548 h 3.221904 v 14.05562 z m -12.174966,6.1435 c -0.518527,0 -0.958885,-0.0755 -1.321723,-0.2267 -0.363489,-0.15104 -0.659232,-0.35111 -0.888531,-0.6006 -0.229951,-0.24948 -0.399971,-0.53285 -0.511363,-0.8501 -0.110739,-0.31724 -0.16676,-0.64295 -0.16676,-0.97516 v -5.30448 h 3.221904 v 5.32727 h 15.063344 v 2.62977 z m 8.620189,-8.79607 c -0.903513,0 -1.714526,-0.0827 -2.432389,-0.24951 -0.719162,-0.166 -1.355594,-0.39279 -1.911254,-0.68007 -0.555004,-0.28662 -1.032493,-0.60842 -1.432463,-0.96343 -0.39997,-0.35504 -0.726329,-0.71396 -0.977776,-1.07681 -0.222133,0.37784 -0.518527,0.74067 -0.88853,1.08787 -0.370656,0.34786 -0.818831,0.65794 -1.344524,0.92958 -0.525693,0.2723 -1.132811,0.49507 -1.821359,0.669 -0.689197,0.17394 -1.463081,0.27556 -2.321648,0.30618 v -2.78874 c 0.710696,0 1.358204,-0.0904 1.943826,-0.27229 0.584973,-0.18113 1.088516,-0.46054 1.510635,-0.83836 0.422117,-0.37782 0.747825,-0.86508 0.977775,-1.46243 0.229298,-0.59669 0.351114,-1.31129 0.366096,-2.1425 v -1.08787 h -4.82113 v -2.76592 h 12.752771 v 2.76592 h -4.776832 v 1.08787 c 0.01496,0.86181 0.159596,1.58359 0.433191,2.1653 0.274245,0.58172 0.644901,1.05399 1.111315,1.41682 0.466415,0.36285 1.010998,0.63123 1.633101,0.8045 0.622101,0.17395 1.2885,0.27621 1.999195,0.30618 v 2.78871 0"
       style="fill:#231f20;fill-opacity:1;fill-rule:nonzero;stroke:none;stroke-width:0.0651416"
       id="path70" />
    <path
       d="m 88.960203,155.23809 v 2.92485 h -3.221252 v -10.15623 h 3.221252 v 4.46548 h 2.46626 v 2.7659 z m -3.154808,6.84703 H 74.763241 v 3.37759 h 11.042154 z m -11.774996,6.0979 c -0.814921,0 -1.433116,-0.23451 -1.855233,-0.70221 -0.422118,-0.46902 -0.633176,-1.05076 -0.633176,-1.74581 v -6.37086 h 17.418213 v 8.81888 z m -0.466414,-10.11061 c -0.519177,0 -0.959535,-0.0755 -1.322376,-0.2267 -0.362838,-0.15124 -0.659232,-0.35177 -0.888529,-0.60125 -0.229951,-0.24886 -0.39997,-0.53287 -0.510711,-0.85011 -0.111406,-0.31723 -0.16676,-0.64229 -0.16676,-0.97452 v -7.41312 h 3.221251 v 7.27696 h 10.197918 v 2.78874 H 73.563986 v 0"
       style="fill:#231f20;fill-opacity:1;fill-rule:nonzero;stroke:none;stroke-width:0.0651416"
       id="path72" />
    <path
       d="m 109.28894,168.18302 v -12.94493 h -1.57707 v 12.94493 h -3.22191 v -20.17631 h 3.22191 v 4.46548 h 1.57707 v -4.46548 h 3.22191 v 20.17631 z m -14.019122,-6.1435 c -0.399316,0 -0.766064,-0.0678 -1.099589,-0.20389 -0.332874,-0.1361 -0.614938,-0.31789 -0.844234,-0.54393 -0.229951,-0.22736 -0.407787,-0.49508 -0.53286,-0.80516 -0.126376,-0.30942 -0.18891,-0.63838 -0.18891,-0.98625 v -11.49358 h 9.975135 v 2.76526 h -6.753883 v 8.50164 h 6.776033 v 2.76591 h -7.331692 v 0"
       style="fill:#231f20;fill-opacity:1;fill-rule:nonzero;stroke:none;stroke-width:0.0651416"
       id="path74" />
    <path
       d="m 132.50606,155.23809 v 4.85175 h -3.22126 v -12.08313 h 3.22126 v 4.46548 h 2.46627 v 2.7659 z m -10.17512,-0.29444 c 0,-0.37782 -0.0703,-0.73285 -0.21105,-1.06572 -0.14126,-0.33223 -0.33353,-0.61949 -0.5778,-0.86117 -0.2443,-0.24167 -0.53352,-0.43123 -0.8664,-0.56673 -0.33352,-0.1361 -0.68528,-0.2039 -1.05529,-0.2039 -0.37065,0 -0.72242,0.0678 -1.05529,0.2039 -0.33353,0.13554 -0.6221,0.32506 -0.86638,0.56673 -0.24494,0.24168 -0.43711,0.52894 -0.57782,0.86117 -0.1407,0.33287 -0.21106,0.6879 -0.21106,1.06572 0,0.37783 0.0704,0.73284 0.21106,1.06507 0.14071,0.33287 0.33288,0.62014 0.57782,0.86181 0.24428,0.24168 0.53285,0.4306 0.86638,0.56674 0.33287,0.13609 0.68464,0.20389 1.05529,0.20389 0.37001,0 0.72177,-0.0678 1.05529,-0.20389 0.33288,-0.13608 0.6221,-0.32506 0.8664,-0.56674 0.24427,-0.24167 0.43644,-0.52894 0.5778,-0.86181 0.1407,-0.33223 0.21105,-0.68724 0.21105,-1.06507 z m 7.02032,13.23937 v -4.05766 h -15.26333 v -2.76592 h 18.41813 v 6.82358 z m -4.86543,-16.14143 c 0.25144,0.42341 0.44753,0.88071 0.58888,1.37188 0.1407,0.49117 0.21106,1.00124 0.21106,1.53018 0,0.80124 -0.14846,1.54125 -0.44426,2.22133 -0.29641,0.68073 -0.70353,1.27352 -1.22207,1.78032 -0.51853,0.50615 -1.12174,0.90286 -1.81094,1.19013 -0.68853,0.28728 -1.41813,0.43059 -2.1881,0.43059 -0.78561,0 -1.51844,-0.14717 -2.19983,-0.44231 -0.68137,-0.29443 -1.28133,-0.69506 -1.79921,-1.20121 -0.51918,-0.50616 -0.92632,-1.0996 -1.22206,-1.77967 -0.29639,-0.68008 -0.44426,-1.41291 -0.44426,-2.19918 0,-0.52894 0.0736,-1.03901 0.22213,-1.53018 0.14787,-0.49117 0.34786,-0.95564 0.5993,-1.39468 h -1.59922 v -2.85647 h 4.93252 v -1.99462 h 3.08772 v 1.99462 h 4.91037 v 2.87927 h -1.62203 v 0"
       style="fill:#231f20;fill-opacity:1;fill-rule:nonzero;stroke:none;stroke-width:0.0651416"
       id="path76" />
    <path
       d="m 136.4165,166.43789 v -2.76592 h 2.39917 v -9.63508 h 3.15483 v 9.63508 h 2.93265 v -9.63508 h 3.15483 v 9.63508 h 3.1776 v -12.9 h -14.08622 v -2.76526 h 17.24038 v 15.66526 h 1.48914 v 2.76592 H 136.4165 v 0"
       style="fill:#231f20;fill-opacity:1;fill-rule:nonzero;stroke:none;stroke-width:0.0651416"
       id="path78" />
    <path
       d="m 11.194157,171.11961 c 0.283365,0 0.512011,-0.22864 0.513316,-0.51006 0.0021,-0.28468 -0.226694,-0.51396 -0.51006,-0.51526 -0.281412,0 -0.511362,0.22864 -0.512663,0.51135 0,0.28206 0.227995,0.512 0.509407,0.51397 m -1.126951,-0.51525 c 0.0013,-0.62408 0.508105,-1.12761 1.132161,-1.12632 0.624057,0.001 1.128905,0.50875 1.125648,1.13281 -0.0021,0.62341 -0.508104,1.1276 -1.132812,1.12564 -0.624058,-0.001 -1.126951,-0.5094 -1.124997,-1.13213"
       style="fill:#148736;fill-opacity:1;fill-rule:nonzero;stroke:none;stroke-width:0.0651416"
       id="path80" />
    <path
       d="m 16.798287,170.6571 c 0.281412,10e-4 0.511363,-0.22734 0.513317,-0.51004 0,-0.28273 -0.227343,-0.51268 -0.510059,-0.51398 -0.281412,0 -0.513316,0.22864 -0.513316,0.51135 0,0.28337 0.227997,0.51267 0.510058,0.51267 m -1.1276,-0.51528 c 0.0021,-0.62273 0.508755,-1.12759 1.132162,-1.12564 0.624057,0.001 1.1276,0.50812 1.126299,1.13348 -0.0021,0.62339 -0.508106,1.12694 -1.132814,1.12434 -0.624708,-0.001 -1.1276,-0.50812 -1.125647,-1.13218"
       style="fill:#148736;fill-opacity:1;fill-rule:nonzero;stroke:none;stroke-width:0.0651416"
       id="path82" />
    <path
       d="m 19.160323,165.47249 c 0.28076,0 0.51071,-0.228 0.512665,-0.51006 0,-0.28141 -0.228648,-0.51202 -0.511363,-0.51331 -0.281412,0 -0.51136,0.22799 -0.51136,0.51004 -0.0021,0.28402 0.226691,0.51267 0.510058,0.51333 m -1.129555,-0.51461 c 0.0039,-0.62342 0.508105,-1.12761 1.134115,-1.12565 0.622754,10e-4 1.12695,0.50875 1.123693,1.13214 0,0.62341 -0.507453,1.12696 -1.132161,1.12565 -0.624057,-0.001 -1.126951,-0.50745 -1.125647,-1.13214"
       style="fill:#148736;fill-opacity:1;fill-rule:nonzero;stroke:none;stroke-width:0.0651416"
       id="path84" />
    <path
       d="m 24.985286,165.0406 c 0.283365,10e-4 0.513316,-0.2267 0.513316,-0.5094 0,-0.28273 -0.227346,-0.51268 -0.510059,-0.51397 -0.283367,-0.001 -0.511362,0.22734 -0.513316,0.5107 -0.0013,0.28207 0.228647,0.51267 0.510059,0.51267 m -1.126951,-0.51461 c 0.0013,-0.62408 0.508106,-1.12828 1.132161,-1.12697 0.624057,0.001 1.1263,0.51006 1.125648,1.13346 -0.0021,0.62405 -0.508755,1.12892 -1.132813,1.12697 -0.622754,-0.001 -1.128905,-0.51007 -1.124996,-1.13346"
       style="fill:#148736;fill-opacity:1;fill-rule:nonzero;stroke:none;stroke-width:0.0651416"
       id="path86" />
    <path
       d="m 27.307585,159.85661 c 0.282061,0.001 0.512012,-0.22734 0.513965,-0.51068 0,-0.28142 -0.228647,-0.51203 -0.512012,-0.51268 -0.281412,-6.5e-4 -0.510059,0.22735 -0.512013,0.51007 -0.0013,0.28271 0.227343,0.51329 0.51006,0.51329 m -1.126951,-0.51525 c 0.0021,-0.62472 0.508104,-1.12825 1.132813,-1.12695 0.623404,0.001 1.126297,0.5094 1.124995,1.13412 -0.0013,0.62406 -0.508105,1.12889 -1.132813,1.12629 -0.625358,-0.001 -1.128252,-0.51004 -1.124995,-1.13346"
       style="fill:#148736;fill-opacity:1;fill-rule:nonzero;stroke:none;stroke-width:0.0651416"
       id="path88" />
    <path
       d="m 33.153392,159.34787 c 0.281412,6.6e-4 0.51136,-0.22733 0.51136,-0.51137 0.0021,-0.28141 -0.226693,-0.51201 -0.509406,-0.51265 -0.283366,-6.5e-4 -0.513969,0.228 -0.515271,0.51071 0,0.28271 0.228648,0.51265 0.513317,0.51331 m -1.128905,-0.51658 c 0,-0.6234 0.508104,-1.12694 1.134115,-1.12564 0.622104,0.001 1.126949,0.51007 1.125648,1.13281 -0.0039,0.62472 -0.510059,1.12825 -1.134768,1.12696 -0.623404,-0.001 -1.12695,-0.51007 -1.124995,-1.13413"
       style="fill:#148736;fill-opacity:1;fill-rule:nonzero;stroke:none;stroke-width:0.0651416"
       id="path90" />
    <path
       d="m 35.460056,154.38994 c 0.284668,6.6e-4 0.514618,-0.22734 0.514618,-0.51005 0,-0.28337 -0.226693,-0.51203 -0.511361,-0.51267 -0.281411,0 -0.513316,0.22734 -0.513316,0.51007 0,0.28205 0.226692,0.51201 0.510059,0.51265 m -1.128905,-0.51461 c 0.0033,-0.62406 0.509408,-1.12761 1.133463,-1.12696 0.624709,0.004 1.127603,0.50942 1.125648,1.13347 0,0.6234 -0.508756,1.1276 -1.132161,1.12565 -0.622102,-10e-4 -1.12695,-0.50811 -1.12695,-1.13216"
       style="fill:#148736;fill-opacity:1;fill-rule:nonzero;stroke:none;stroke-width:0.0651416"
       id="path92" />
    <path
       d="m 25.239338,158.83586 c -1.475458,0.32896 -2.689697,1.96859 -2.689697,1.96859 -1.323026,1.91775 -1.007089,3.35805 -1.007089,3.35805 l 3.687014,-5.30383 z m 0.4143,0.33351 -3.707209,5.29016 c 0,0 1.459824,-0.20194 2.804999,-2.10603 0,0 1.120434,-1.70411 0.921101,-3.20041 z m -4.750777,6.25621 c 0,0 -0.889833,-5.89988 5.176153,-7.50432 0,0 1.500209,5.68688 -5.176153,7.50432"
       style="fill:#148736;fill-opacity:1;fill-rule:nonzero;stroke:none;stroke-width:0.0651416"
       id="path94" />
    <path
       d="m 32.938423,160.48199 c -1.316512,-0.74 -3.314405,-0.33223 -3.314405,-0.33223 -2.266926,0.53937 -2.995211,1.82137 -2.995211,1.82137 l 6.288119,-1.47677 z m 0.08533,0.52635 -6.293982,1.4546 c 0,0 1.220753,0.82664 3.494195,0.31008 0,0 1.973141,-0.51918 2.82389,-1.76403 z m -7.716675,1.47479 c 0,0 3.285091,-4.98202 8.867726,-2.11969 0,0 -2.685788,5.23346 -8.867726,2.11969"
       style="fill:#148736;fill-opacity:1;fill-rule:nonzero;stroke:none;stroke-width:0.0651416"
       id="path96" />
    <path
       d="m 17.135722,164.45236 c -1.473503,0.32896 -2.685789,1.9686 -2.685789,1.9686 -1.326934,1.91775 -1.010997,3.35869 -1.010997,3.35869 l 3.687015,-5.30448 z m 0.416255,0.33353 -3.709163,5.2895 c 0,0 1.461777,-0.20065 2.804999,-2.10538 0,0 1.121085,-1.7054 0.921101,-3.19975 z m -4.752732,6.25751 c 0,0 -0.88853,-5.90053 5.175501,-7.50562 0,0 1.502166,5.68686 -5.175501,7.50562"
       style="fill:#148736;fill-opacity:1;fill-rule:nonzero;stroke:none;stroke-width:0.0651416"
       id="path98" />
    <path
       d="m 24.736445,166.14931 c -1.31521,-0.74197 -3.315707,-0.33419 -3.315707,-0.33419 -2.265627,0.54133 -2.993909,1.82266 -2.993909,1.82266 l 6.286815,-1.47805 z m 0.08533,0.52568 -6.29268,1.45333 c 0,0 1.219451,0.82794 3.491591,0.31136 0,0 1.973791,-0.52046 2.826494,-1.76469 z m -7.716674,1.4735 c 0,0 3.284438,-4.98072 8.865772,-2.11904 0,0 -2.683835,5.23282 -8.865772,2.11904"
       style="fill:#148736;fill-opacity:1;fill-rule:nonzero;stroke:none;stroke-width:0.0651416"
       id="path100" />
    <path
       d="m 33.440014,153.16919 c -1.471548,0.32897 -2.685788,1.96793 -2.685788,1.96793 -1.325633,1.91842 -1.010998,3.3587 -1.010998,3.3587 l 3.690271,-5.30317 z m 0.418209,0.33417 -3.709814,5.29016 c 0,0 1.461778,-0.20063 2.803694,-2.10538 0,0 1.123041,-1.70541 0.924359,-3.20106 z m -4.753382,6.25686 c 0,0 -0.887882,-5.90117 5.176151,-7.50561 0,0 1.500211,5.68751 -5.176151,7.50561"
       style="fill:#148736;fill-opacity:1;fill-rule:nonzero;stroke:none;stroke-width:0.0651416"
       id="path102" />
    <path
       d="m 40.991229,155.06612 c -1.315209,-0.74067 -3.313754,-0.33419 -3.313754,-0.33419 -2.267578,0.54133 -2.997816,1.82266 -2.997816,1.82266 l 6.289422,-1.47741 z m 0.08533,0.52634 -6.29268,1.45331 c 0,0 1.2188,0.82795 3.492242,0.30876 0,0 1.971186,-0.51721 2.825843,-1.76207 z m -7.716674,1.47416 c 0,0 3.284439,-4.98137 8.865771,-2.12102 0,0 -2.685788,5.23412 -8.865771,2.12102"
       style="fill:#148736;fill-opacity:1;fill-rule:nonzero;stroke:none;stroke-width:0.0651416"
       id="path104" />
    <path
       d="m 16.600259,171.80489 c -1.321724,-0.72698 -3.317012,-0.30159 -3.317012,-0.30159 -2.262367,0.56087 -2.98088,1.84936 -2.98088,1.84936 l 6.275743,-1.53538 z m 0.0886,0.52636 -6.279001,1.51258 c 0,0 1.227921,0.81622 3.496151,0.27686 0,0 1.969882,-0.53613 2.810208,-1.79075 z m -7.7010407,1.54645 c 0,0 3.2368847,-5.01199 8.8468817,-2.20308 0,0 -2.637584,5.25822 -8.8468817,2.20308"
       style="fill:#148736;fill-opacity:1;fill-rule:nonzero;stroke:none;stroke-width:0.0651416"
       id="path106" />
    <path
       d="m 10.817637,168.87875 c 0,0 0.895698,0.004 1.492394,0.50483 0,0 -0.414951,-2.34117 2.487759,-5.02827 -0.175236,-0.65663 -0.287274,-1.33866 -0.331571,-2.03959 H 9.0933403 c 0.099011,2.35682 0.710042,4.58075 1.7242967,6.56303"
       style="fill:#148736;fill-opacity:1;fill-rule:nonzero;stroke:none;stroke-width:0.0651416"
       id="path108" />
    <path
       d="m 18.019043,171.22188 c 0.323754,0.12627 0.422769,0.35113 0.422769,0.35113 -0.852704,1.94447 -2.846037,2.90269 -2.846037,2.90269 2.563321,1.87087 5.707707,2.9926 9.119824,3.03821 l 0.01366,-5.36507 c -2.37897,-0.0516 -4.565124,-0.89243 -6.302449,-2.27082 0.347855,0.67355 -0.407788,1.34386 -0.407788,1.34386"
       style="fill:#148736;fill-opacity:1;fill-rule:nonzero;stroke:none;stroke-width:0.0651416"
       id="path110" />
    <path
       d="m 24.729278,151.19409 v -5.37027 l -15.741467,6.5e-4 v 5.36768 h 4.115646 c -2.328161,2.31253 -3.8290233,5.89465 -4.0068612,9.68069 h 5.3578972 c 0.437753,-5.39893 4.97226,-9.6618 10.274785,-9.67875"
       style="fill:#148736;fill-opacity:1;fill-rule:nonzero;stroke:none;stroke-width:0.0651416"
       id="path112" />
    <path
       d="m 26.210599,145.82382 h 16.015063 v 5.36766 h -3.629038 v 2.3438 c -0.338737,-0.0886 -1.3569,0.1987 -1.3569,0.1987 -0.743918,-2.32361 -2.393303,-1.3556 -2.393303,-1.3556 -0.02345,-0.17449 -0.173278,-0.62407 -0.173278,-0.62407 -0.398016,-0.10102 -1.447447,0.29575 -1.447447,0.29575 l 0.0013,-0.82341 v -0.0351 h -7.013793 l -0.0026,-5.36767 v 0"
       style="fill:#148736;fill-opacity:1;fill-rule:nonzero;stroke:none;stroke-width:0.0651416"
       id="path114" />
    <path
       d="m 38.596624,166.35517 v -7.87564 c -1.358203,0.56674 -3.842052,-0.0351 -3.842052,-0.0351 0.295092,1.27352 -0.378472,1.64613 -0.378472,1.64613 0.172633,0.10102 0.396059,0.34916 0.396059,0.34916 -0.351112,1.17386 -1.57838,2.01874 -1.57838,2.01874 l -0.0077,2.54443 c -0.413647,6.81707 -6.151321,7.12714 -6.962984,7.13626 v 5.37484 c 0,0 5.679043,-0.12627 9.635745,-4.46546 0,0 2.248689,2.72227 6.36694,3.87266 v -6.12655 c 0,0 -3.573016,-1.19535 -3.629039,-4.4394 v 0"
       style="fill:#148736;fill-opacity:1;fill-rule:nonzero;stroke:none;stroke-width:0.0651416"
       id="path116" />
  </g>
</svg>
