<svg xmlns="http://www.w3.org/2000/svg" viewBox="0 0 1600 900" preserveAspectRatio="xMidYMid slice">
  <defs>
    <radialGradient id="nodeGlow" cx="50%" cy="50%" r="50%">
      <stop offset="0%" stop-color="#ffffff" stop-opacity="0.9"/>
      <stop offset="100%" stop-color="#ffffff" stop-opacity="0"/>
    </radialGradient>
  </defs>
  <g stroke="#ffffff" stroke-width="0.8" opacity="0.35" fill="none">
    <line x1="80" y1="120" x2="240" y2="80"/>
    <line x1="240" y1="80" x2="420" y2="180"/>
    <line x1="80" y1="120" x2="180" y2="260"/>
    <line x1="180" y1="260" x2="420" y2="180"/>
    <line x1="420" y1="180" x2="580" y2="90"/>
    <line x1="580" y1="90" x2="760" y2="200"/>
    <line x1="760" y1="200" x2="900" y2="100"/>
    <line x1="900" y1="100" x2="1080" y2="220"/>
    <line x1="1080" y1="220" x2="1260" y2="120"/>
    <line x1="1260" y1="120" x2="1440" y2="220"/>
    <line x1="1440" y1="220" x2="1540" y2="80"/>
    <line x1="180" y1="260" x2="340" y2="400"/>
    <line x1="340" y1="400" x2="520" y2="340"/>
    <line x1="520" y1="340" x2="700" y2="440"/>
    <line x1="700" y1="440" x2="860" y2="360"/>
    <line x1="860" y1="360" x2="1020" y2="480"/>
    <line x1="1020" y1="480" x2="1200" y2="400"/>
    <line x1="1200" y1="400" x2="1380" y2="500"/>
    <line x1="1380" y1="500" x2="1540" y2="380"/>
    <line x1="340" y1="400" x2="420" y2="180"/>
    <line x1="520" y1="340" x2="580" y2="90"/>
    <line x1="700" y1="440" x2="760" y2="200"/>
    <line x1="860" y1="360" x2="900" y2="100"/>
    <line x1="1020" y1="480" x2="1080" y2="220"/>
    <line x1="1200" y1="400" x2="1260" y2="120"/>
    <line x1="120" y1="620" x2="260" y2="540"/>
    <line x1="260" y1="540" x2="440" y2="660"/>
    <line x1="440" y1="660" x2="620" y2="580"/>
    <line x1="620" y1="580" x2="800" y2="680"/>
    <line x1="800" y1="680" x2="980" y2="600"/>
    <line x1="980" y1="600" x2="1160" y2="720"/>
    <line x1="1160" y1="720" x2="1340" y2="620"/>
    <line x1="1340" y1="620" x2="1520" y2="740"/>
    <line x1="260" y1="540" x2="340" y2="400"/>
    <line x1="440" y1="660" x2="520" y2="340"/>
    <line x1="620" y1="580" x2="700" y2="440"/>
    <line x1="800" y1="680" x2="860" y2="360"/>
    <line x1="980" y1="600" x2="1020" y2="480"/>
    <line x1="1160" y1="720" x2="1200" y2="400"/>
    <line x1="1340" y1="620" x2="1380" y2="500"/>
  </g>
  <g fill="#ffffff" opacity="0.7">
    <circle cx="80" cy="120" r="3"/>
    <circle cx="240" cy="80" r="2.5"/>
    <circle cx="420" cy="180" r="3.5"/>
    <circle cx="180" cy="260" r="2.5"/>
    <circle cx="580" cy="90" r="3"/>
    <circle cx="760" cy="200" r="3"/>
    <circle cx="900" cy="100" r="3.5"/>
    <circle cx="1080" cy="220" r="2.5"/>
    <circle cx="1260" cy="120" r="3"/>
    <circle cx="1440" cy="220" r="3"/>
    <circle cx="1540" cy="80" r="2.5"/>
    <circle cx="340" cy="400" r="3"/>
    <circle cx="520" cy="340" r="3"/>
    <circle cx="700" cy="440" r="3.5"/>
    <circle cx="860" cy="360" r="3"/>
    <circle cx="1020" cy="480" r="3"/>
    <circle cx="1200" cy="400" r="3.5"/>
    <circle cx="1380" cy="500" r="3"/>
    <circle cx="1540" cy="380" r="2.5"/>
    <circle cx="120" cy="620" r="2.5"/>
    <circle cx="260" cy="540" r="3"/>
    <circle cx="440" cy="660" r="3"/>
    <circle cx="620" cy="580" r="3.5"/>
    <circle cx="800" cy="680" r="3"/>
    <circle cx="980" cy="600" r="3"/>
    <circle cx="1160" cy="720" r="3.5"/>
    <circle cx="1340" cy="620" r="3"/>
    <circle cx="1520" cy="740" r="3"/>
  </g>
</svg>
